<?xml version="1.0" encoding="UTF-8"?>
<svg id="Layer_1" data-name="Layer 1" xmlns="http://www.w3.org/2000/svg" xmlns:xlink="http://www.w3.org/1999/xlink" viewBox="0 0 863 181.11">
  <defs>
    <style>
      .cls-1 {
        fill: url(#linear-gradient);
      }
    </style>
    <linearGradient id="linear-gradient" x1="0" y1="90.55" x2="863" y2="90.55" gradientUnits="userSpaceOnUse">
      <stop offset="0" stop-color="#ffc929"/>
      <stop offset="1" stop-color="#eb4f46"/>
    </linearGradient>
  </defs>
  <path class="cls-1" d="M80,41.11H20C8.95,41.11,0,32.16,0,21.11h0C0,10.06,8.95,1.11,20,1.11h60c11.05,0,20,8.95,20,20h0c0,11.05-8.95,20-20,20ZM250,1.11h-1.83c1.19,0,2.37.02,3.55.08-.56-.06-1.14-.08-1.72-.08ZM270,21.11h0c0-11.05-8.95-20-20-20h-60c-11.05,0-20,8.95-20,20h0c0,11.05,8.95,20,20,20h60c11.05,0,20-8.95,20-20ZM248.74,181.1c.09.01.17.01.26.01.11,0,.22,0,.33-.01-.19,0-.39.01-.59,0ZM269.03,161.11h0c0-11.05-8.95-20-20-20h0c-11.05,0-20,8.95-20,20h0c0,11.05,8.95,20,20,20h0c11.05,0,20-8.95,20-20ZM863,20.11V7.61c0-4.14-3.36-7.5-7.5-7.5h-12.5c-11.05,0-20,8.95-20,20h0c0,11.05,8.95,20,20,20h0c11.05,0,20-8.95,20-20ZM132,91.11h0c0-11.05-8.95-20-20-20H22c-11.05,0-20,8.95-20,20h0c0,11.05,8.95,20,20,20h90c11.05,0,20-8.95,20-20ZM160,161.11h0c0-11.05-8.95-20-20-20H20c-11.05,0-20,8.95-20,20h0c0,11.05,8.95,20,20,20h120c11.05,0,20-8.95,20-20ZM338.17,91.11c0,49.21-39.49,89.19-88.51,89.98,5.26-.16,10-2.36,13.48-5.84,3.62-3.62,5.86-8.62,5.86-14.14s-2.24-10.52-5.86-14.14c-3.62-3.62-8.62-5.86-14.14-5.86-.33,0-.67.01-1,.03v-.03h.17c27.61,0,50-22.39,50-50s-22.39-50-50-50h1.83c5.52,0,10.52-2.24,14.14-5.86,3.62-3.62,5.86-8.62,5.86-14.14,0-10.47-8.03-19.05-18.28-19.92,48.07,1.85,86.45,41.4,86.45,89.92ZM248.54,181.1c-.12.01-.25.01-.37.01h-.17v-.03c.18.01.36.02.54.02ZM438.35,10.53l-69.68,145.25c-5.41,11.27,2.81,24.33,15.31,24.33h139.37c12.5,0,20.72-13.05,15.31-24.33L468.98,10.53c-6.16-12.85-24.46-12.85-30.62,0ZM637,160.11V20.11c0-11.05-8.95-20-20-20h0c-11.05,0-20,8.95-20,20v140c0,11.05,8.95,20,20,20h0c11.05,0,20-8.95,20-20ZM699.17,122.59l-65-112.58c-5.52-9.57-17.75-12.84-27.32-7.32h0c-9.57,5.52-12.84,17.75-7.32,27.32l65,112.58c5.52,9.57,17.75,12.84,27.32,7.32h0c9.57-5.52,12.84-17.75,7.32-27.32ZM699.16,142.59l65-112.58c5.52-9.57,2.25-21.8-7.32-27.32h0c-9.57-5.52-21.8-2.25-27.32,7.32l-65,112.58c-5.52,9.57-2.25,21.8,7.32,27.32h0c9.57,5.52,21.8,2.25,27.32-7.32ZM767,160.11V20.11c0-11.05-8.95-20-20-20h0c-11.05,0-20,8.95-20,20v140c0,11.05,8.95,20,20,20h0c11.05,0,20-8.95,20-20ZM863,160.11v-95.67c0-11.05-8.95-20-20-20h0c-11.05,0-20,8.95-20,20v95.67c0,11.05,8.95,20,20,20h0c11.05,0,20-8.95,20-20Z"/>
</svg>